<mxfile host="Electron" agent="Mozilla/5.0 (Windows NT 10.0; Win64; x64) AppleWebKit/537.36 (KHTML, like Gecko) draw.io/24.7.17 Chrome/128.0.6613.36 Electron/32.0.1 Safari/537.36" version="24.7.17">
  <diagram name="Page-1" id="I3EFCEcw3V6F1r5EEA8A">
    <mxGraphModel dx="2868" dy="1688" grid="1" gridSize="10" guides="1" tooltips="1" connect="1" arrows="1" fold="1" page="1" pageScale="1" pageWidth="850" pageHeight="1100" math="0" shadow="0">
      <root>
        <mxCell id="0" />
        <mxCell id="1" parent="0" />
        <mxCell id="sHH3n_FWFHbK2fJ0A97q-68" value="" style="rounded=1;whiteSpace=wrap;html=1;fillColor=#0a66c2;aspect=fixed;" vertex="1" parent="1">
          <mxGeometry x="370" y="350" width="1000" height="1000" as="geometry" />
        </mxCell>
        <mxCell id="J0dEPnR1_3g076MgOdwK-1" value="" style="shape=image;verticalLabelPosition=bottom;labelBackgroundColor=default;verticalAlign=top;aspect=fixed;imageAspect=0;image=data:image/png,iVBORw0KGgoAAAANSUhEUgAAAgAAAAIACAYAAAD0eNT6AAAACXBIWXMAAA7EAAAOxAGVKw4bAAAXlklEQVR4nO3dv25VV9rA4fegNOM0OK1TeRqD4BLCWNAkipBIwwXMCCJRgRBXgVBSRUqicAE0iYQQaWIRcglEmGZcxS24iac8U8A2x+bYPn/23mutvZ6nSpgJXl8Yfe9vr7X2OREAQHVGqRfA8VZuPr926BfG46uH/jZGm32uB+CoUYyfHf6F0ePJv93/4dIvfa6H2QmAxA6G/LvhPo7R5mgU60kXBdCy8Th2DmLhXSSIg7QEQI9Wbj6/ZtADvHc0DERBfwRAh5qBb9gDzO4gCgRBpwRAiwx8gPYJgm4IgCUdbOuPRv9OvRaAKozHD8XA8gTAAgx9gEyIgYUJgBkZ+gCZEwNzEQCnWLn5/Np4HA+c6QOUYTyOndEo7gqBkwmAKTztAwyEXYFjCYAJnvYBhsmuwIcEQBj8ALUQAu9VHQAGP0CdhEClAWDwAxBRdwhUFQAGPwDT1BgC1QTAyo3ff3KrH4ATjccP93/8139SL6MPgw+Ad1+3+3PqdQBQlK+Gvhsw2ACw3Q/AMoZ+LDDIALDdD0BrBnosMKgAsN0PQIcGdSxwJvUC2rJy4/efwvAHoDs/v5s1g1D8DoCzfgD6NJS7AUUHgLN+AJIp/G5AsQHwjxvP/+upH4CUxuPY+d+Pl/6Zeh2LKC4AXPQDIEPFXRAsKgAMfwAyVlQEFPMWgFv+AGSuqLcEitgBcN4PQClKuReQfQAY/gCUpoQIyDYAnPcDMADZ3gvIMgAMfwAGJMsIyC4ADH8ABii7CMgqAAx/AAYsqwjIJgAMfwAqkE0EZBEAhj8AFckiApIHgOEPQIWSR0DSADD8AahY0ghIFgCGPwCki4AkAWD4A8CBJBGQ6suADH8AeCvJTOw9AP5x4/l/+/6ZAJCzFLOx1yMAX+wDANP1/QVCve0ArNz4/SfDHwCmG41ifeXG7z/19vP6+CEu/QHAzHq5FNh5ABj+ADC3ziOgjyMAwx8A5tP57Ow0ANz4B4DFdD1DOwsAl/4AYHFdXwrs5A6Ac38AaE0n9wG62gEw/AGgHZ3M1NYDoM93GAGgBl3M1laPAGz9A0BnWj0KaHsHwPAHgG60OmNbCwBb/wDQrTZnbStHALb+AaA3rRwFtLIDMB7HgzZ+HwDgZG3N3KUDwAf+AEB/2vqAoOV3AEajfy/9ewAAs2th9i4VAC7+AUAay87ghS8BuvgHAMktfCFw4R0AF/8AIK1lZvFCAbBy8/k1F/8AIK3RKNbf7cjPbaEA8PQPAHlYdCbPHQCe/gEgH4vuAiyyA+DiHwDkZe7ZPFcALHrOAAB0a94ZPVcAOPsHgDzNO6NnDgBn/wCQr3nvAswcAJ7+ASBv88zqmQLA0z8A5G+eXYDZdgDG46tLrQgA6MeMM3u2APCNfwBQhhln9qkB4Bv/AKAss8zu03cAPP0DQFlmmN0nBoAP/gGAMp02w0/eAXD5DwDKdMoMPzkAbP8DQJlOmeHHBoDtfwAo20mz/NgA8Ml/AFC2k2b5sQHgk/8AoGwnzfKpAWD7HwCG4biZPjUAbP8DwDAcN9OnBoDtfwAYhuNm+gcBYPsfAIZl2mz/cAfAh/8AwLBMme0fBoAP/wGAYZky2w8FgO1/ABimozP+8A6A7X8AGKYjM/70rwMGAAbncAA4/weAYToy4w8CwPk/AAzb5Kx3BAAAFXofAC4AAsCwTcz6gwAYx2gzyWIAgF5MzvqDAPD5/wAwbJOz/kyEC4AAUItm5rsECAAV+igi3l4KGI0SL4W+bW6sRkTE+bWVD/6zl7v7ERHx7NWbXtcEQMfeXgT85aPU66AfmxurcX5tJb64+ElcPnd27n9+a3svnr54HS9390UBwAB8FPH2VqDn/+HZ3FiNu59/utDAP+ryubOHfp8mCL77bXfp3xuA/jRvAowiIlZuPh8nXQ2tunVlLe5f7++ljq3tvXjw6192BgAKsf/DpZEjgAHpe/A3mt0BIQBQjtG71wF+Tr0QFpdq8B/n3qMdRwMAefvKa4CFe3z7YlbDPyLi/vX1+Pv7zw7eMgAgPwKgUJsbq/H395+1csGvK0/uXIhbV9ZSLwOAKc74EqDy3LqyFk/uXEi9jJncv74ej29fTL0MACaNx1ftABQmxy3/01w+d9aRAEBmBEBBHt++mPWW/2me3LkgAgAyccbXAJeh9OHfEAEA6Y1jtGkHoABDGf6NUu4vAAyZAMjcrStrgxr+DRcDAdI6MxpFWTfKKrK5sVrchb9ZXT53VgQAJDIaxbodgIwNfav88rmzPicAIBEBkKlano6HusMBkDsBkKGhnvsfp5bYAciJAMhQbU/Fl8+d9WogQM8EQGZqPRO/+/mnqZcAUBUBkJnanv4bdgEA+iUAMlLr03/DLgBAfwRARmp9+m/YBQDojwDIhMH31vm1ldRLAKiCAMiE7e+3at8FAeiLAMhETe/9n8ZuCED3BEAGDLzDHAMAdE8AZMDAO+yLi5+kXgLA4AmADBh4hzkOAeieAMiAgfchxyIA3RIAZMmxCEC3BEBinnQBSEEAkCX3IgC6JQASs9UNQAoCAAAqJAAAoEICAAAqJAAAoEICILGXu/uplwBAhQQAWXr64nXqJQAMmgBI7NmrN6mXAECFBABZcjQC0C0BkIGt7b3US8iOnRGAbgmADDjvPkwQAXRPAGTAdjcAfRMAGbDdfdiDX/9KvQSAwRMAmbDt/Z4gAuieAMiEewBvCSGAfgiATHz3227qJWTB9j9APwRARu492km9hORs/wP0QwBkpPZdAAEE0B8BkJmaz8BrDyCAPgmAzFz99kXqJSTh6R+gXwIgQ7UNw63tPU//AD0TABn67rfdqo4C3PwH6J8AyFQtQ/Heox03/wESEACZevbqzeCPAmz9A6QjADI29KOAWi88AuRAAGTu6rcvBhkBX37zZ+olAFRNABRgaE/KX37zp3N/gMQEQCGG8sTs0h9AHgRAIZ69elN8BHz5zZ8u/QFkQgAU5NmrN/Hx138UeSfAtj9AXgRAgUq6GLi1vRcff/2H4Q+QGQFQqKvfvsj+SODeo53BXWAEGAoBULBcjwS2tvec9wNkbrRy8/k49SJY3ubGatz9/NO4fO5s0nXce7Rj8AMUQAAMTIoQ2Nrei6cvXhv8AAURAAO1ubEa59dW4v719c5+xtb2Xjz49S8X/AAKJAAq0MTAFxc/WWpnoHnSf7m7b+gDFE4AVGhzYzUiIs6vrURExBcXP/ngv/P0xeuDvzbwAYZHAABAhbwGCAAVEgAAUCEBAAAVEgAAUCEBAAAVEgAAUCEBAAAVEgAAUCEBAAAVEgAAUCEBAAAVEgAAUCEBAAAVEgAAUCEBAAAVEgAAUCEBAAAVEgAAUCEBAAAVEgAAUCEBAAAVEgAAUCEBAAAVEgAAUCEBAAAVEgAAUCEBAAAVEgAAUKGPUi+AiM2N1dRLyNKzV29SL2Eqf175/tl0Yd4/75r+3VA2AZDYrStrcf/6euplZGdrey/b/0f65M6F1EtIKuc/m3k1w/382kp8cfGTg1+/fO5sqz9na3vv4K+fvngdEREvd/cjQjCQjgAAqrC5sXpo0Lc95E8y+bOm/dwmECbjQBjQNQEADNLkwO9z2C+iWd/RdW5t78XTF68FAZ0QAMBg3LqyVsTAn9Xlc2cP/d8iCGiTAACKtrmxGnc//3QwQ/8k04Lgwa9/iQEWIgCA4jTb+7VfoJ0MgnuPduwMMBcBABSjpqf9eTUx1BwTfPfbbuIVkTsBAGRvaGf7XWp2Be5fX497j3aEAMcSAEC2DP7l3L++LgQ4lo8CBrKzubEaj29fjPvX1w3/Fty/vh5/f/9Z3LqylnopZEQAAFl5fPtiPLlzweDvgBBgkgAAsnDrylr8/f1nBn8P7l9fj8e3L/pei8q5AwAk5WZ/Gs1lQfcD6mUHAEjm1pU12/2JNbsB1EcAAEk0l/xI7/K5s/H39585EqiMAAB6tbmx6qw/U0/uXHBBsCICAOhNs+VPvu5fXxcBlRAAQC9uXVmz5V8I9wLqIACAzjnvL8/lc2dFwMAJAKBTj29fdN5fKBEwbAIA6IzhXz4RMFwCAOiE4T8cImCYBADQOsN/eC6fO+vtgIERAECrDP/hun993YcFDYgAAFpz68qa4T9wT+5cEAEDIQCAVnjPvx53P/809RJogQAAlra5sWr4V8SlwGEQAMDSPBHW5/K5s44CCicAgKW49Fcv3+tQNgEALGxzY9Xwr5xXA8slAICFeQLEq4HlEgDAQlwCo+EOSJkEADA3W/9MciGwTAIAmMvlc2dt/fMBuwDlEQAALM13BZRHAADQCh8GVRYBAEBr7AKUQwAA0JovLn6SegnMSAAA0BpvBJRDAADQKm8ElEEAANAqnxFRBgEAQOtcBsyfAACgdV4JzJ8AAKATLgPmTQAA0AmXAfMmAADohMuAeRMAAHTGMUC+BAAAnTm/tpJ6CRxDAADQGW8D5EsAANApxwB5EgAAdMoxQJ4EAACd8g2BeRIAAHTK64B5EgAAdM49gPwIAAA65x5AfgQAAJ1zDyA/H6VeAMC8trb34umL1xER8XJ3PyIinr16M/M/32xHn19bORhMzqm75d9vfgQAkL1m4L/c3Z9r0B+n+T2evXoT3/22e/DrmxurcffzTw0rqiAAgCxtbe/Fg1//amXgz+rZqzcHP08MtG9zY7XXP09OJgCArNx7tHPoqTyVyRh4fPuiEGjB+bUVAZARlwCBLNx7tBMff/1HFsP/qKvfvogvv/kztrb3Ui+laC4C5sUOAJDU1vZeXP32ReplnKrZEbh1Zc0X3DAIAgBI5stv/ixuS/i733bj5e5+PLlzIfVSiuMYJS+OAIDebW3vxcdf/1Hc8G88e/UmPv76D0cCC/CJgPkQAECvStnyn8XVb1+IAIolAIDeDGn4N0TAfHwkcD4EANCLIQ7/xoNf/0q9hGJ4EyAfAgDo3JCHf8TbOwFffvNn6mXAXAQA0LkhD//Gs1dvHAXMwJsA+RAAQKdqejKuIXQYDgEAdObeo51iX/Vb1L1HO6mXADMRAEAntrb3svxY365999uuo4BT+CyAPAgAoBM134x/+uJ16iXAqQQA0Lqt7b3qtv4n1bjzMQ+fBZAHAQC0ruan/4a7AOROAACtqv3pv2EXgNwJAKBVnv7fcxlwOp8GmAcBALTK0/97LgOSMwEAtMa592GOAciZAABa83J3P/USsuMY4EM+DjgPAgBohct/0zkGIFcCAGiFQTedXRFyJQCAVhh009kVIVcCAGiFQXc89wDIkQAAlmbAMS9fCJSeAACW5vz/ZP79kCMBACzN+f/J/PshRwIAWJrzfyiPAADomEAiRwIAWIoLgFAmAQAsxQW32QglciMAAOjd+bWV1EuongAAluKGO5RJAAD0wFEJuREAwFLccIcyCQAAqJAAABbmZvvs3JUgNwIAACokAACgQgIAACokAICFebUNyiUAAHrgdUlyIwAAoEICAAAqJAAAoEICAAAqJAAAoEICAAAqJAAAoEICAAAqJAAAoEICAAAqJAAAoEICAAAqJAAAoEICAAAqJAAAoEICAAAqJAAAoEICAAAqJAAAoEICAAAqJAAAoEICAAAqJAAAoEICAAAqJAAAoEICAAAqJAAAoEICAAAqJAAAoEICAAAqJAAAoEICAAAqJAAAoEICAAAqJAAAoEICAAAqJAAAoEICAAAqJAAAoEICAAAqJAAAoEICAAAqJAAAoEICAAAqJAAAoEICAAAqJAAAoEICAAAqJAAAoEICAAAqJAAAoEICAAAqJAAAoEICAAAqJAAAoEICAAAqJAAAoEICAAAqJAAAoEICAAAqJAAAoEICAAAqJAAAoEICAAAqJAAAoEICAAAqJAAAoEICAAAqJAAAoEICAAAqJAAAoEICAAAqJAAAoEICAAAqJAAAoEICAAAqJAAAoEICAAAqJAAAoEICAAAqJAAAoEICAAAqJAAAoEICAAAqJAAAoEICAAAqJAAAoEICAAAqJAAAoEICAAAqJAAAoEICAAAqJAAAoEICAAAqJAAAoEICAAAqJAAAoEICAAAqJAAAoEJnxuPYSb0IAKA/43Hs2AEAgAoJAACo0JlRjJ+lXgQA0J9RjJ/ZAQCACgkAAKjQmRiNHqdeBADQo9HosR0AAKiQAACACp3Z/+HSL6kXAQD0Z/+HS7/YAQCACp2JePuRgKkXAgB0r5n5ZyLefiBA0tUAAL1oZv5HiddRvZe7+3HvkQ2Yo17u7qdewrH8eb2X859Tjvxv5z3/20lvFBGxcvP5tYj4OfFaAIDufeUSIABUatT8xcrN5+OUCwEAurf/w6VRxMQHAXkTAACGbXLWHwSANwEAYNgmZ/37OwC+FAgAhm1i1rsECAAVGk3+jYuAADBczQXAiKM7AOPxw95XAwB078iMdwQAABU6HAAuAgLAMB2Z8aOj/7l7AAAwPJPn/xHTjgDcAwCAYZky2z8MAMcAADAsU2b7B0cAEY4BAGBIjm7/RxzzFoDvBQCAYThupk8NgNEo7na7HACgD8fN9KlHABGOAQBgCKZt/0ec8EFAjgEAoGwnzfJjA8AxAACU7aRZfuwRQIRjAAAo2XHb/xGnfReADwUCgDKdMsNPDgAfCgQAZTplhp94BBDhGAAASnTS9n/ELF8H7BgAAMoyw+w+dQcgwi4AAJTktKf/iFl2ACLsAgBAKWac2bMFgMuAAFCGGWf2TEcAERH/uPH8v6NRrC++IgCgS+Nx7Pzvx0v/nOW/O9sOQPhkQADI3TyzeuYdgAi7AACQq3me/iPm2AGIsAsAALmad0bPtQMQ4ZVAAMjRLK/+TZprB+Cdrxb4ZwCA7sw9m+feAYhwFwAAcjHv2X9jkR0AdwEAIBOLzuSFdgAi7AIAQGqLPv1HLLgDEGEXAABSW2YWLxwA+z9c+sV3BABAIuPxw/0fLv2y6D++8BFAw2uBANC/eV/7O2rhHYADdgEAoF8tzN6ldwAiXAgEgL4sc/Fv0vI7AOFCIAD0pa2Z20oAuBAIAD1Y8uLfpFaOABouBAJAd5a9+DeplR2ACb4nAAC60eqMbTUAHAUAQAda3PpvtHoE0HAUAADtaXPrv9H2EUDDUQAAtKOTmdpJADgKAIAWdLD13+jkCKDhA4IAYDFtfeDPcToNgAj3AQBgEV2c+0/q6g7AJPcBAGA+nc/OzncAIiJWbj6/FhE/9/GzAKBwX3V17j+pjx0AlwIBYBYdXvo7qpcdgIZLgQAwXdeX/o7qNQAiRAAAHNX38I9IEAAR3gwAgEld3/ifppc7AFN4MwAA3koyE5PsAER4MwAAoqcb/9MkC4AIEQBA1ZIN/4jEARAhAgCoUtLhH5FBAESIAACqknz4R2QSABEiAIAqZDH8IzIKgAgRAMCgZTP8IzILgAgRAMAgZTX8IzIMgAgRAMCgZDf8IzINgAgRAMAgZDn8IzIOgIbvDgCgNCk+239e2QdAhAgAoBwlDP+IdN8FMJf//XjpnzEeP0y9DgA40Xj8sIThH1HIDkDDvQAAMpbtef80RQVAhAgAIEtFDf+IAgOg4V4AAKmVct4/TRF3AKZxLwCApAo675+m2ACIiNj/8V//iYivxuPYSb0WAOrwbuZ89W4GFavYI4CjVm78/lOMRv9OvQ4ABmw8flj64G8MJgAiXBAEoFPFXfQ7yaACoGE3AIDWDOipf1LRdwCO424AAMsayln/cQa5AzDJsQAACxjUdv80gw+AhmMBAE410O3+aQZ5BDCNYwEAjjP07f5pqtkBmLRy8/m18Tge+CRBgLqNx7EzGsXdoW/3T1NlADSEAECdah78jaoDoCEEAOpg8L8nACYIAYBhMvg/JACmWLn5/FqMx1e9NQBQuPH4YYxGjw3+DwmAU9gVACiLp/3ZCIAZ2RUAyJyn/bkIgAWIAYBMGPoLEwBLEgMAPTP0WyEAWtTEwDhGm+4MALRjPI6dUYyfGfrtEgAdEgQA8zPw+yEAenRwXBARogBgYthHhIHfLwGQ2LuvKw5hAAzZ0UEfEWHYpyUAMnYQB413kXDwtzHa7HM9AEcdDPWDX3g73BuGPABARv4PlcSbljpbiGYAAAAASUVORK5CYII=;" parent="1" vertex="1">
          <mxGeometry x="520" y="490" width="720" height="720" as="geometry" />
        </mxCell>
        <mxCell id="sHH3n_FWFHbK2fJ0A97q-67" value="" style="shape=image;verticalLabelPosition=bottom;labelBackgroundColor=default;verticalAlign=top;aspect=fixed;imageAspect=0;image=data:image/svg+xml,PHN2ZyB4bWxuczp4bGluaz0iaHR0cDovL3d3dy53My5vcmcvMTk5OS94bGluayIgeG1sbnM9Imh0dHA6Ly93d3cudzMub3JnLzIwMDAvc3ZnIiB4bWw6c3BhY2U9InByZXNlcnZlIiBzdHlsZT0iZW5hYmxlLWJhY2tncm91bmQ6bmV3IDAgMCAxMjIuODggMTIyLjg3IiB2aWV3Qm94PSIwIDAgMTIyLjg4IDEyMi44NyIgeT0iMHB4IiB4PSIwcHgiIGlkPSJMYXllcl8xIiB2ZXJzaW9uPSIxLjEiPjxnPjxwYXRoIGQ9Ik0xMjIuODgsNzcuNjN2NDEuMTJjMCwyLjI4LTEuODUsNC4xMi00LjEyLDQuMTJINzcuMzN2LTkuNjJoMzUuOTVjMC0xMi4zNCwwLTIzLjI3LDAtMzUuNjJIMTIyLjg4TDEyMi44OCw3Ny42M3ogTTc3LjM5LDkuNTNWMGg0MS4zN2MyLjI4LDAsNC4xMiwxLjg1LDQuMTIsNC4xMnY0MS4xOGgtOS42M1Y5LjUzSDc3LjM5TDc3LjM5LDkuNTN6IE05LjYzLDQ1LjI0SDBWNC4xMkMwLDEuODUsMS44NSwwLDQuMTIsMGg0MSB2OS42NEg5LjYzVjQ1LjI0TDkuNjMsNDUuMjR6IE00NS4wNywxMTMuMjd2OS42SDQuMTJjLTIuMjgsMC00LjEyLTEuODUtNC4xMi00LjEzVjc3LjU3aDkuNjN2MzUuNzFINDUuMDdMNDUuMDcsMTEzLjI3eiIgZmlsbD0iI0ZGRkZGRiIvPjwvZz48L3N2Zz4=;" vertex="1" parent="1">
          <mxGeometry x="470" y="440" width="820" height="820" as="geometry" />
        </mxCell>
      </root>
    </mxGraphModel>
  </diagram>
</mxfile>
